<mxfile host="65bd71144e">
    <diagram id="7t8PscA0Z8yVZJpWDt_T" name="Page-1">
        <mxGraphModel dx="1717" dy="-1674" grid="1" gridSize="10" guides="1" tooltips="1" connect="1" arrows="1" fold="0" page="0" pageScale="1" pageWidth="1200" pageHeight="1600" math="0" shadow="0">
            <root>
                <mxCell id="0"/>
                <mxCell id="1" parent="0"/>
                <mxCell id="116" value="" style="shape=datastore;whiteSpace=wrap;html=1;shadow=1;fontSize=18;" vertex="1" parent="1">
                    <mxGeometry x="246.56" y="4810" width="310" height="330" as="geometry"/>
                </mxCell>
                <mxCell id="2" value="" style="ellipse;shape=cloud;whiteSpace=wrap;html=1;shadow=1;dashed=1;strokeColor=default;fontSize=18;fillColor=none;" vertex="1" parent="1">
                    <mxGeometry x="-160" y="4435" width="350" height="180" as="geometry"/>
                </mxCell>
                <mxCell id="120" style="edgeStyle=none;sketch=0;html=1;entryX=0.5;entryY=0;entryDx=0;entryDy=0;fontSize=24;" edge="1" parent="1" source="8" target="116">
                    <mxGeometry relative="1" as="geometry"/>
                </mxCell>
                <mxCell id="8" value="" style="ellipse;shape=cloud;whiteSpace=wrap;html=1;shadow=1;dashed=1;strokeColor=default;fontSize=18;fillColor=none;" vertex="1" parent="1">
                    <mxGeometry x="230" y="4430" width="350" height="180" as="geometry"/>
                </mxCell>
                <mxCell id="54" style="edgeStyle=none;sketch=0;html=1;entryX=0.07;entryY=0.4;entryDx=0;entryDy=0;entryPerimeter=0;fontSize=24;exitX=0.377;exitY=1.003;exitDx=0;exitDy=0;exitPerimeter=0;" edge="1" parent="1" source="10" target="51">
                    <mxGeometry relative="1" as="geometry"/>
                </mxCell>
                <mxCell id="143" style="edgeStyle=orthogonalEdgeStyle;sketch=0;html=1;entryX=0.373;entryY=-0.004;entryDx=0;entryDy=0;entryPerimeter=0;fontSize=18;curved=1;exitX=0;exitY=0.5;exitDx=0;exitDy=0;" edge="1" parent="1" source="10" target="132">
                    <mxGeometry relative="1" as="geometry"/>
                </mxCell>
                <mxCell id="10" value="" style="rounded=0;whiteSpace=wrap;html=1;shadow=1;dashed=1;strokeColor=default;fontSize=18;fillColor=none;" vertex="1" parent="1">
                    <mxGeometry x="10" y="3370" width="337.5" height="130" as="geometry"/>
                </mxCell>
                <mxCell id="11" value="AR client" style="text;html=1;strokeColor=none;fillColor=none;align=center;verticalAlign=middle;whiteSpace=wrap;rounded=0;shadow=1;dashed=1;fontSize=18;" vertex="1" parent="1">
                    <mxGeometry x="147.5" y="3380" width="60" height="30" as="geometry"/>
                </mxCell>
                <mxCell id="12" value="iOS APP" style="rounded=0;whiteSpace=wrap;html=1;shadow=1;dashed=1;strokeColor=default;fontSize=18;fillColor=none;" vertex="1" parent="1">
                    <mxGeometry x="27.500000000000004" y="3415" width="120" height="60" as="geometry"/>
                </mxCell>
                <mxCell id="13" value="Quest APP" style="rounded=0;whiteSpace=wrap;html=1;shadow=1;dashed=1;strokeColor=default;fontSize=18;fillColor=none;" vertex="1" parent="1">
                    <mxGeometry x="207.5" y="3415" width="120" height="60" as="geometry"/>
                </mxCell>
                <mxCell id="18" style="html=1;fontSize=18;startArrow=none;startFill=0;endArrow=classic;endFill=1;exitX=0.55;exitY=0.95;exitDx=0;exitDy=0;exitPerimeter=0;" edge="1" parent="1" source="51" target="38">
                    <mxGeometry relative="1" as="geometry">
                        <mxPoint x="180" y="3760" as="sourcePoint"/>
                    </mxGeometry>
                </mxCell>
                <mxCell id="130" value="DNS解析" style="edgeLabel;html=1;align=center;verticalAlign=middle;resizable=0;points=[];fontSize=18;" vertex="1" connectable="0" parent="18">
                    <mxGeometry x="-0.0363" y="5" relative="1" as="geometry">
                        <mxPoint as="offset"/>
                    </mxGeometry>
                </mxCell>
                <mxCell id="20" value="Contents Place Service" style="text;html=1;strokeColor=none;fillColor=none;align=center;verticalAlign=middle;whiteSpace=wrap;rounded=0;shadow=1;dashed=1;fontSize=18;" vertex="1" parent="1">
                    <mxGeometry x="-87.5" y="4460" width="157.5" height="30" as="geometry"/>
                </mxCell>
                <mxCell id="23" value="Query Content Number&amp;nbsp;" style="rounded=0;whiteSpace=wrap;html=1;shadow=1;dashed=1;strokeColor=default;fontSize=18;fillColor=none;" vertex="1" parent="1">
                    <mxGeometry x="-110" y="4510" width="137.5" height="30" as="geometry"/>
                </mxCell>
                <mxCell id="24" value="SLAM" style="rounded=0;whiteSpace=wrap;html=1;shadow=1;dashed=1;strokeColor=default;fontSize=18;fillColor=none;" vertex="1" parent="1">
                    <mxGeometry x="50" y="4505" width="85" height="30" as="geometry"/>
                </mxCell>
                <mxCell id="119" style="edgeStyle=none;sketch=0;html=1;fontSize=24;entryX=0.048;entryY=0.047;entryDx=0;entryDy=0;entryPerimeter=0;" edge="1" parent="1" source="25" target="116">
                    <mxGeometry relative="1" as="geometry"/>
                </mxCell>
                <mxCell id="25" value="Get the Content" style="rounded=0;whiteSpace=wrap;html=1;shadow=1;dashed=1;strokeColor=default;fontSize=18;fillColor=none;" vertex="1" parent="1">
                    <mxGeometry x="-12.5" y="4555" width="85" height="30" as="geometry"/>
                </mxCell>
                <mxCell id="26" value="Outside Navigation Service" style="text;html=1;strokeColor=none;fillColor=none;align=center;verticalAlign=middle;whiteSpace=wrap;rounded=0;shadow=1;dashed=1;fontSize=18;" vertex="1" parent="1">
                    <mxGeometry x="312.5" y="4460" width="187.5" height="30" as="geometry"/>
                </mxCell>
                <mxCell id="28" value="Google Map" style="rounded=0;whiteSpace=wrap;html=1;shadow=1;dashed=1;strokeColor=default;fontSize=18;fillColor=none;" vertex="1" parent="1">
                    <mxGeometry x="296.56" y="4505" width="127.5" height="30" as="geometry"/>
                </mxCell>
                <mxCell id="29" value="Map Mark" style="rounded=0;whiteSpace=wrap;html=1;shadow=1;dashed=1;strokeColor=default;fontSize=18;fillColor=none;" vertex="1" parent="1">
                    <mxGeometry x="400" y="4550" width="85" height="30" as="geometry"/>
                </mxCell>
                <mxCell id="78" style="sketch=0;html=1;exitX=0.25;exitY=1;exitDx=0;exitDy=0;entryX=0.625;entryY=0.2;entryDx=0;entryDy=0;entryPerimeter=0;fontSize=24;" edge="1" parent="1" source="34" target="2">
                    <mxGeometry relative="1" as="geometry"/>
                </mxCell>
                <mxCell id="129" value="Service Registry/Discovery" style="edgeLabel;html=1;align=center;verticalAlign=middle;resizable=0;points=[];fontSize=18;" vertex="1" connectable="0" parent="78">
                    <mxGeometry x="-0.0933" y="-3" relative="1" as="geometry">
                        <mxPoint as="offset"/>
                    </mxGeometry>
                </mxCell>
                <mxCell id="79" style="edgeStyle=none;sketch=0;html=1;exitX=0.5;exitY=1;exitDx=0;exitDy=0;fontSize=24;entryX=0.465;entryY=0.062;entryDx=0;entryDy=0;entryPerimeter=0;" edge="1" parent="1" source="34" target="8">
                    <mxGeometry relative="1" as="geometry"/>
                </mxCell>
                <mxCell id="80" style="edgeStyle=none;sketch=0;html=1;exitX=0.75;exitY=1;exitDx=0;exitDy=0;entryX=0.4;entryY=0.1;entryDx=0;entryDy=0;entryPerimeter=0;fontSize=24;" edge="1" parent="1" source="34" target="68">
                    <mxGeometry relative="1" as="geometry"/>
                </mxCell>
                <mxCell id="164" style="edgeStyle=none;sketch=0;html=1;entryX=0.625;entryY=0.2;entryDx=0;entryDy=0;entryPerimeter=0;fontSize=18;dashed=1;dashPattern=8 8;" edge="1" parent="1" source="34" target="128">
                    <mxGeometry relative="1" as="geometry"/>
                </mxCell>
                <mxCell id="34" value="&lt;font style=&quot;font-size: 24px;&quot;&gt;service monitor center&lt;/font&gt;" style="rounded=0;whiteSpace=wrap;html=1;shadow=1;dashed=1;strokeColor=default;fontSize=18;fillColor=none;" vertex="1" parent="1">
                    <mxGeometry x="301.25" y="4240" width="220" height="70" as="geometry"/>
                </mxCell>
                <mxCell id="58" style="edgeStyle=none;sketch=0;html=1;exitX=0.053;exitY=0.814;exitDx=0;exitDy=0;entryX=0.5;entryY=0;entryDx=0;entryDy=0;fontSize=24;exitPerimeter=0;" edge="1" parent="1" source="38" target="56">
                    <mxGeometry relative="1" as="geometry"/>
                </mxCell>
                <mxCell id="131" value="Load Balencing" style="edgeLabel;html=1;align=center;verticalAlign=middle;resizable=0;points=[];fontSize=18;" vertex="1" connectable="0" parent="58">
                    <mxGeometry x="-0.0423" y="3" relative="1" as="geometry">
                        <mxPoint as="offset"/>
                    </mxGeometry>
                </mxCell>
                <mxCell id="59" style="edgeStyle=none;sketch=0;html=1;exitX=0.5;exitY=1;exitDx=0;exitDy=0;entryX=0.5;entryY=0;entryDx=0;entryDy=0;fontSize=24;" edge="1" parent="1" source="38" target="55">
                    <mxGeometry relative="1" as="geometry"/>
                </mxCell>
                <mxCell id="113" style="edgeStyle=none;sketch=0;html=1;entryX=0.5;entryY=0;entryDx=0;entryDy=0;fontSize=18;" edge="1" parent="1" source="38" target="112">
                    <mxGeometry relative="1" as="geometry"/>
                </mxCell>
                <mxCell id="38" value="Ngnix" style="ellipse;whiteSpace=wrap;html=1;aspect=fixed;shadow=1;dashed=1;strokeColor=default;fontSize=18;fillColor=none;" vertex="1" parent="1">
                    <mxGeometry x="379.53" y="3880" width="90" height="90" as="geometry"/>
                </mxCell>
                <mxCell id="51" value="&lt;span style=&quot;font-size: 18px;&quot;&gt;公网&lt;/span&gt;" style="ellipse;shape=cloud;whiteSpace=wrap;html=1;" vertex="1" parent="1">
                    <mxGeometry x="311.25" y="3660" width="210" height="120" as="geometry"/>
                </mxCell>
                <mxCell id="61" style="edgeStyle=none;sketch=0;html=1;exitX=0.5;exitY=1;exitDx=0;exitDy=0;fontSize=24;" edge="1" parent="1" source="55" target="34">
                    <mxGeometry relative="1" as="geometry"/>
                </mxCell>
                <mxCell id="55" value="API Gateway2" style="rounded=0;whiteSpace=wrap;html=1;shadow=1;dashed=1;fontSize=18;" vertex="1" parent="1">
                    <mxGeometry x="375" y="4050" width="120" height="60" as="geometry"/>
                </mxCell>
                <mxCell id="60" style="edgeStyle=none;sketch=0;html=1;fontSize=24;" edge="1" parent="1" source="56" target="34">
                    <mxGeometry relative="1" as="geometry"/>
                </mxCell>
                <mxCell id="56" value="API Gateway1" style="rounded=0;whiteSpace=wrap;html=1;shadow=1;dashed=1;fontSize=18;" vertex="1" parent="1">
                    <mxGeometry x="192.5" y="4050" width="120" height="60" as="geometry"/>
                </mxCell>
                <mxCell id="64" value="media contents" style="shape=cylinder3;whiteSpace=wrap;html=1;boundedLbl=1;backgroundOutline=1;size=15;shadow=1;dashed=1;strokeColor=default;fontSize=18;fillColor=none;" vertex="1" parent="1">
                    <mxGeometry x="440" y="4925" width="89.22" height="100" as="geometry"/>
                </mxCell>
                <mxCell id="65" value="user data" style="shape=cylinder3;whiteSpace=wrap;html=1;boundedLbl=1;backgroundOutline=1;size=15;shadow=1;dashed=1;fontSize=18;fillColor=#1ba1e2;strokeColor=#006EAF;fontColor=#ffffff;" vertex="1" parent="1">
                    <mxGeometry x="262.34" y="4950" width="85.16" height="100" as="geometry"/>
                </mxCell>
                <mxCell id="121" style="edgeStyle=none;sketch=0;html=1;entryX=0.982;entryY=0.076;entryDx=0;entryDy=0;entryPerimeter=0;fontSize=24;exitX=0.359;exitY=0.907;exitDx=0;exitDy=0;exitPerimeter=0;" edge="1" parent="1" source="68" target="116">
                    <mxGeometry relative="1" as="geometry"/>
                </mxCell>
                <mxCell id="68" value="" style="ellipse;shape=cloud;whiteSpace=wrap;html=1;shadow=1;dashed=1;strokeColor=#432D57;fontSize=18;fillColor=#76608a;fontColor=#ffffff;" vertex="1" parent="1">
                    <mxGeometry x="590" y="4435" width="350" height="180" as="geometry"/>
                </mxCell>
                <mxCell id="69" value="UGC Check&amp;nbsp;service" style="text;html=1;strokeColor=none;fillColor=none;align=center;verticalAlign=middle;whiteSpace=wrap;rounded=0;shadow=1;dashed=1;fontSize=18;" vertex="1" parent="1">
                    <mxGeometry x="662.5" y="4460" width="187.5" height="30" as="geometry"/>
                </mxCell>
                <mxCell id="70" value="Encode" style="rounded=0;whiteSpace=wrap;html=1;shadow=1;dashed=1;strokeColor=default;fontSize=18;fillColor=none;" vertex="1" parent="1">
                    <mxGeometry x="662.5" y="4505" width="85" height="30" as="geometry"/>
                </mxCell>
                <mxCell id="71" value="Decode" style="rounded=0;whiteSpace=wrap;html=1;shadow=1;dashed=1;strokeColor=default;fontSize=18;fillColor=none;" vertex="1" parent="1">
                    <mxGeometry x="772.5" y="4505" width="85" height="30" as="geometry"/>
                </mxCell>
                <mxCell id="72" value="NLP" style="rounded=0;whiteSpace=wrap;html=1;shadow=1;dashed=1;strokeColor=default;fontSize=18;fillColor=none;" vertex="1" parent="1">
                    <mxGeometry x="737.5" y="4555" width="85" height="30" as="geometry"/>
                </mxCell>
                <mxCell id="104" style="edgeStyle=none;sketch=0;html=1;entryX=0.5;entryY=0;entryDx=0;entryDy=0;fontSize=18;" edge="1" parent="1" source="94" target="97">
                    <mxGeometry relative="1" as="geometry"/>
                </mxCell>
                <mxCell id="106" style="edgeStyle=none;sketch=0;html=1;entryX=0.5;entryY=0;entryDx=0;entryDy=0;fontSize=18;" edge="1" parent="1" source="94" target="10">
                    <mxGeometry relative="1" as="geometry"/>
                </mxCell>
                <mxCell id="94" value="User" style="shape=umlActor;verticalLabelPosition=bottom;verticalAlign=top;html=1;outlineConnect=0;fontSize=18;fillColor=#1ba1e2;strokeColor=#006EAF;fontColor=#ffffff;" vertex="1" parent="1">
                    <mxGeometry x="382.5" y="3030" width="57.5" height="70" as="geometry"/>
                </mxCell>
                <mxCell id="111" style="edgeStyle=none;sketch=0;html=1;entryX=0.91;entryY=0.42;entryDx=0;entryDy=0;entryPerimeter=0;fontSize=18;exitX=0.75;exitY=1;exitDx=0;exitDy=0;" edge="1" parent="1" source="97" target="51">
                    <mxGeometry relative="1" as="geometry"/>
                </mxCell>
                <mxCell id="151" style="edgeStyle=orthogonalEdgeStyle;curved=1;sketch=0;html=1;fontSize=18;" edge="1" parent="1" source="97" target="144">
                    <mxGeometry relative="1" as="geometry"/>
                </mxCell>
                <mxCell id="97" value="" style="rounded=0;whiteSpace=wrap;html=1;shadow=1;dashed=1;strokeColor=default;fontSize=18;fillColor=none;" vertex="1" parent="1">
                    <mxGeometry x="477.5" y="3370" width="337.5" height="130" as="geometry"/>
                </mxCell>
                <mxCell id="98" value="UGC&lt;br&gt;client" style="text;html=1;strokeColor=none;fillColor=none;align=center;verticalAlign=middle;whiteSpace=wrap;rounded=0;shadow=1;dashed=1;fontSize=18;" vertex="1" parent="1">
                    <mxGeometry x="615" y="3380" width="60" height="30" as="geometry"/>
                </mxCell>
                <mxCell id="99" value="iOS APP" style="rounded=0;whiteSpace=wrap;html=1;shadow=1;dashed=1;strokeColor=default;fontSize=18;fillColor=none;" vertex="1" parent="1">
                    <mxGeometry x="495" y="3415" width="120" height="60" as="geometry"/>
                </mxCell>
                <mxCell id="114" style="edgeStyle=none;sketch=0;html=1;entryX=0.75;entryY=0;entryDx=0;entryDy=0;fontSize=18;" edge="1" parent="1" source="112" target="34">
                    <mxGeometry relative="1" as="geometry"/>
                </mxCell>
                <mxCell id="112" value="API Gateway3" style="rounded=0;whiteSpace=wrap;html=1;shadow=1;dashed=1;fontSize=18;" vertex="1" parent="1">
                    <mxGeometry x="542.5" y="4050" width="120" height="60" as="geometry"/>
                </mxCell>
                <mxCell id="118" value="&lt;span style=&quot;font-size: 24px;&quot;&gt;Storage&lt;/span&gt;" style="text;html=1;strokeColor=none;fillColor=none;align=center;verticalAlign=middle;whiteSpace=wrap;rounded=0;shadow=1;fontSize=18;" vertex="1" parent="1">
                    <mxGeometry x="339.77" y="4830" width="130.47" height="30" as="geometry"/>
                </mxCell>
                <mxCell id="122" value="media contents" style="shape=cylinder3;whiteSpace=wrap;html=1;boundedLbl=1;backgroundOutline=1;size=15;shadow=1;dashed=1;strokeColor=default;fontSize=18;fillColor=none;" vertex="1" parent="1">
                    <mxGeometry x="360.39" y="5020" width="89.22" height="100" as="geometry"/>
                </mxCell>
                <mxCell id="123" value="&lt;font style=&quot;font-size: 18px;&quot;&gt;Site 1&lt;/font&gt;" style="text;html=1;strokeColor=none;fillColor=none;align=center;verticalAlign=middle;whiteSpace=wrap;rounded=0;shadow=1;fontSize=24;" vertex="1" parent="1">
                    <mxGeometry x="445.86" y="4925" width="75.39" height="30" as="geometry"/>
                </mxCell>
                <mxCell id="124" value="&lt;font style=&quot;font-size: 18px;&quot;&gt;Site 2&lt;/font&gt;" style="text;html=1;strokeColor=none;fillColor=none;align=center;verticalAlign=middle;whiteSpace=wrap;rounded=0;shadow=1;fontSize=24;" vertex="1" parent="1">
                    <mxGeometry x="364.61" y="5020" width="75.39" height="30" as="geometry"/>
                </mxCell>
                <mxCell id="165" style="edgeStyle=none;sketch=0;html=1;dashed=1;dashPattern=8 8;fontSize=18;" edge="1" parent="1" source="128" target="116">
                    <mxGeometry relative="1" as="geometry"/>
                </mxCell>
                <mxCell id="128" value="..." style="ellipse;shape=cloud;whiteSpace=wrap;html=1;shadow=1;dashed=1;strokeColor=default;fontSize=18;fillColor=none;" vertex="1" parent="1">
                    <mxGeometry x="950" y="4435" width="350" height="180" as="geometry"/>
                </mxCell>
                <mxCell id="132" value="" style="shape=note;whiteSpace=wrap;html=1;backgroundOutline=1;darkOpacity=0.05;shadow=1;fontSize=18;" vertex="1" parent="1">
                    <mxGeometry x="-160" y="3610" width="180" height="260" as="geometry"/>
                </mxCell>
                <mxCell id="134" value="-Unity-" style="text;html=1;strokeColor=none;fillColor=none;align=center;verticalAlign=middle;whiteSpace=wrap;rounded=0;shadow=1;fontSize=18;" vertex="1" parent="1">
                    <mxGeometry x="-110" y="3630" width="60" height="30" as="geometry"/>
                </mxCell>
                <mxCell id="137" value="Object Detection" style="text;html=1;strokeColor=none;fillColor=none;align=center;verticalAlign=middle;whiteSpace=wrap;rounded=0;shadow=1;fontSize=18;" vertex="1" parent="1">
                    <mxGeometry x="-140" y="3670" width="150" height="30" as="geometry"/>
                </mxCell>
                <mxCell id="138" value="SLAM" style="text;html=1;strokeColor=none;fillColor=none;align=center;verticalAlign=middle;whiteSpace=wrap;rounded=0;shadow=1;fontSize=18;" vertex="1" parent="1">
                    <mxGeometry x="-145" y="3710" width="75" height="30" as="geometry"/>
                </mxCell>
                <mxCell id="139" value="IMU/GPS" style="text;html=1;strokeColor=none;fillColor=none;align=center;verticalAlign=middle;whiteSpace=wrap;rounded=0;shadow=1;fontSize=18;" vertex="1" parent="1">
                    <mxGeometry x="-120" y="3750" width="50" height="30" as="geometry"/>
                </mxCell>
                <mxCell id="140" value="AR kit" style="text;html=1;strokeColor=none;fillColor=none;align=center;verticalAlign=middle;whiteSpace=wrap;rounded=0;shadow=1;fontSize=18;" vertex="1" parent="1">
                    <mxGeometry x="-140" y="3790" width="57.5" height="30" as="geometry"/>
                </mxCell>
                <mxCell id="141" value="AR Foundation" style="text;html=1;strokeColor=none;fillColor=none;align=center;verticalAlign=middle;whiteSpace=wrap;rounded=0;shadow=1;fontSize=18;" vertex="1" parent="1">
                    <mxGeometry x="-140" y="3830" width="127.5" height="30" as="geometry"/>
                </mxCell>
                <mxCell id="144" value="" style="shape=note;whiteSpace=wrap;html=1;backgroundOutline=1;darkOpacity=0.05;shadow=1;fontSize=18;" vertex="1" parent="1">
                    <mxGeometry x="850" y="3595" width="180" height="265" as="geometry"/>
                </mxCell>
                <mxCell id="145" value="-Flutter-" style="text;html=1;strokeColor=none;fillColor=none;align=center;verticalAlign=middle;whiteSpace=wrap;rounded=0;shadow=1;fontSize=18;" vertex="1" parent="1">
                    <mxGeometry x="900" y="3615" width="70" height="30" as="geometry"/>
                </mxCell>
                <mxCell id="146" value="Assets shop" style="text;html=1;strokeColor=none;fillColor=none;align=center;verticalAlign=middle;whiteSpace=wrap;rounded=0;shadow=1;fontSize=18;" vertex="1" parent="1">
                    <mxGeometry x="865" y="3660" width="115" height="30" as="geometry"/>
                </mxCell>
                <mxCell id="147" value="Camera" style="text;html=1;strokeColor=none;fillColor=none;align=center;verticalAlign=middle;whiteSpace=wrap;rounded=0;shadow=1;fontSize=18;" vertex="1" parent="1">
                    <mxGeometry x="857.5" y="3700" width="95" height="30" as="geometry"/>
                </mxCell>
                <mxCell id="148" value="Photo" style="text;html=1;strokeColor=none;fillColor=none;align=center;verticalAlign=middle;whiteSpace=wrap;rounded=0;shadow=1;fontSize=18;" vertex="1" parent="1">
                    <mxGeometry x="865" y="3740" width="70" height="30" as="geometry"/>
                </mxCell>
                <mxCell id="149" value="Text" style="text;html=1;strokeColor=none;fillColor=none;align=center;verticalAlign=middle;whiteSpace=wrap;rounded=0;shadow=1;fontSize=18;" vertex="1" parent="1">
                    <mxGeometry x="865" y="3780" width="57.5" height="30" as="geometry"/>
                </mxCell>
                <mxCell id="162" style="edgeStyle=orthogonalEdgeStyle;sketch=0;html=1;fontSize=18;entryX=0.75;entryY=1;entryDx=0;entryDy=0;" edge="1" parent="1" source="154" target="155">
                    <mxGeometry relative="1" as="geometry">
                        <mxPoint x="963.75" y="4060" as="targetPoint"/>
                    </mxGeometry>
                </mxCell>
                <mxCell id="154" value="Admin" style="shape=umlActor;verticalLabelPosition=bottom;verticalAlign=top;html=1;outlineConnect=0;fontSize=18;fillColor=#e3c800;fontColor=#000000;strokeColor=#B09500;" vertex="1" parent="1">
                    <mxGeometry x="935" y="4120" width="57.5" height="70" as="geometry"/>
                </mxCell>
                <mxCell id="161" style="edgeStyle=orthogonalEdgeStyle;sketch=0;html=1;entryX=1;entryY=0.5;entryDx=0;entryDy=0;fontSize=18;exitX=0.5;exitY=1;exitDx=0;exitDy=0;" edge="1" parent="1" source="155" target="112">
                    <mxGeometry relative="1" as="geometry">
                        <Array as="points">
                            <mxPoint x="879" y="4080"/>
                        </Array>
                    </mxGeometry>
                </mxCell>
                <mxCell id="155" value="" style="rounded=0;whiteSpace=wrap;html=1;shadow=1;dashed=1;strokeColor=default;fontSize=18;fillColor=none;" vertex="1" parent="1">
                    <mxGeometry x="710" y="3920" width="337.5" height="130" as="geometry"/>
                </mxCell>
                <mxCell id="156" value="supervisor website" style="text;html=1;strokeColor=none;fillColor=none;align=center;verticalAlign=middle;whiteSpace=wrap;rounded=0;shadow=1;dashed=1;fontSize=18;" vertex="1" parent="1">
                    <mxGeometry x="847.5" y="3930" width="60" height="30" as="geometry"/>
                </mxCell>
                <mxCell id="157" value="Browser" style="rounded=0;whiteSpace=wrap;html=1;shadow=1;dashed=1;strokeColor=default;fontSize=18;fillColor=none;" vertex="1" parent="1">
                    <mxGeometry x="727.5" y="3965" width="120" height="60" as="geometry"/>
                </mxCell>
                <mxCell id="166" value="Upload" style="text;html=1;strokeColor=none;fillColor=none;align=center;verticalAlign=middle;whiteSpace=wrap;rounded=0;shadow=1;fontSize=18;" vertex="1" parent="1">
                    <mxGeometry x="876.25" y="3820" width="57.5" height="30" as="geometry"/>
                </mxCell>
            </root>
        </mxGraphModel>
    </diagram>
</mxfile>